# Blender 4.3.2
# www.blender.org
mtllib oht-foup.mtl
o foup
v -0.208950 -0.173500 -0.705000
v 0.208950 -0.173500 -0.705000
v 0.208950 -0.173500 -0.405000
v -0.208950 -0.173500 -0.405000
v 0.194875 -0.173500 -0.680000
v -0.194875 -0.173500 -0.680000
v -0.194875 -0.173500 -0.430000
v 0.194875 -0.173500 -0.430000
v 0.198807 0.038426 -0.705000
v 0.193562 0.065466 -0.705000
v 0.183460 0.091092 -0.705000
v 0.168843 0.114438 -0.705000
v 0.150203 0.134718 -0.705000
v 0.128169 0.151247 -0.705000
v 0.103484 0.163469 -0.705000
v 0.076980 0.170971 -0.705000
v 0.049552 0.173500 -0.705000
v 0.049552 0.173500 -0.405000
v 0.076980 0.170971 -0.405000
v 0.103484 0.163469 -0.405000
v 0.128169 0.151247 -0.405000
v 0.150203 0.134718 -0.405000
v 0.168843 0.114438 -0.405000
v 0.183460 0.091092 -0.405000
v 0.193562 0.065466 -0.405000
v 0.198807 0.038426 -0.405000
v -0.049552 0.173500 -0.705000
v -0.049552 0.173500 -0.405000
v -0.076980 0.170971 -0.705000
v -0.103484 0.163469 -0.705000
v -0.128169 0.151247 -0.705000
v -0.150203 0.134718 -0.705000
v -0.168843 0.114438 -0.705000
v -0.183460 0.091092 -0.705000
v -0.193562 0.065466 -0.705000
v -0.198807 0.038426 -0.705000
v -0.198807 0.038426 -0.405000
v -0.193562 0.065466 -0.405000
v -0.183460 0.091092 -0.405000
v -0.168843 0.114438 -0.405000
v -0.150203 0.134718 -0.405000
v -0.128169 0.151247 -0.405000
v -0.103484 0.163469 -0.405000
v -0.076980 0.170971 -0.405000
v -0.218900 -0.162505 -0.705000
v -0.218900 -0.162505 -0.405000
v -0.218677 -0.165823 -0.705000
v -0.217377 -0.168884 -0.705000
v -0.215146 -0.171349 -0.705000
v -0.212229 -0.172947 -0.705000
v -0.212229 -0.172947 -0.405000
v -0.215146 -0.171349 -0.405000
v -0.217377 -0.168884 -0.405000
v -0.218677 -0.165823 -0.405000
v 0.212229 -0.172947 -0.705000
v 0.215146 -0.171349 -0.705000
v 0.217377 -0.168884 -0.705000
v 0.218677 -0.165823 -0.705000
v 0.218900 -0.162505 -0.705000
v 0.218900 -0.162505 -0.405000
v 0.218677 -0.165823 -0.405000
v 0.217377 -0.168884 -0.405000
v 0.215146 -0.171349 -0.405000
v 0.212229 -0.172947 -0.405000
v -0.050000 0.050000 -0.405000
v 0.050000 0.050000 -0.405000
v 0.050000 -0.050000 -0.405000
v -0.050000 -0.050000 -0.405000
v 0.049552 0.148500 -0.680000
v 0.072409 0.146392 -0.680000
v 0.094495 0.140141 -0.680000
v 0.115066 0.129956 -0.680000
v 0.133428 0.116182 -0.680000
v 0.148961 0.099282 -0.680000
v 0.161142 0.079826 -0.680000
v 0.169560 0.058472 -0.680000
v 0.173932 0.035938 -0.680000
v 0.173932 0.035938 -0.430000
v 0.169560 0.058472 -0.430000
v 0.161142 0.079826 -0.430000
v 0.148961 0.099282 -0.430000
v 0.133428 0.116182 -0.430000
v 0.115066 0.129956 -0.430000
v 0.094495 0.140141 -0.430000
v 0.072409 0.146392 -0.430000
v 0.049552 0.148500 -0.430000
v -0.049552 0.148500 -0.680000
v -0.049552 0.148500 -0.430000
v -0.173932 0.035938 -0.680000
v -0.169560 0.058472 -0.680000
v -0.161142 0.079826 -0.680000
v -0.148961 0.099282 -0.680000
v -0.133428 0.116182 -0.680000
v -0.115066 0.129956 -0.680000
v -0.094495 0.140141 -0.680000
v -0.072409 0.146392 -0.680000
v -0.072409 0.146392 -0.430000
v -0.094495 0.140141 -0.430000
v -0.115066 0.129956 -0.430000
v -0.133428 0.116182 -0.430000
v -0.148961 0.099282 -0.430000
v -0.161142 0.079826 -0.430000
v -0.169560 0.058472 -0.430000
v -0.173932 0.035938 -0.430000
v -0.050000 0.050000 -0.387000
v 0.050000 0.050000 -0.387000
v -0.050000 -0.050000 -0.387000
v 0.050000 -0.050000 -0.387000
v -0.100000 -0.090000 -0.387000
v -0.099511 -0.093090 -0.387000
v -0.098090 -0.095878 -0.387000
v -0.095878 -0.098090 -0.387000
v -0.093090 -0.099511 -0.387000
v -0.090000 -0.100000 -0.387000
v -0.090000 -0.100000 -0.368000
v -0.093090 -0.099511 -0.368000
v -0.095878 -0.098090 -0.368000
v -0.098090 -0.095878 -0.368000
v -0.099511 -0.093090 -0.368000
v -0.100000 -0.090000 -0.368000
v 0.090000 -0.100000 -0.387000
v 0.090000 -0.100000 -0.368000
v 0.093090 -0.099511 -0.387000
v 0.095878 -0.098090 -0.387000
v 0.098090 -0.095878 -0.387000
v 0.099511 -0.093090 -0.387000
v 0.100000 -0.090000 -0.387000
v 0.100000 -0.090000 -0.368000
v 0.099511 -0.093090 -0.368000
v 0.098090 -0.095878 -0.368000
v 0.095878 -0.098090 -0.368000
v 0.093090 -0.099511 -0.368000
v 0.100000 0.090000 -0.387000
v 0.100000 0.090000 -0.368000
v 0.099511 0.093090 -0.387000
v 0.098090 0.095878 -0.387000
v 0.095878 0.098090 -0.387000
v 0.093090 0.099511 -0.387000
v 0.090000 0.100000 -0.387000
v 0.090000 0.100000 -0.368000
v 0.093090 0.099511 -0.368000
v 0.095878 0.098090 -0.368000
v 0.098090 0.095878 -0.368000
v 0.099511 0.093090 -0.368000
v -0.090000 0.100000 -0.387000
v -0.090000 0.100000 -0.368000
v -0.093090 0.099511 -0.387000
v -0.095878 0.098090 -0.387000
v -0.098090 0.095878 -0.387000
v -0.099511 0.093090 -0.387000
v -0.100000 0.090000 -0.387000
v -0.100000 0.090000 -0.368000
v -0.099511 0.093090 -0.368000
v -0.098090 0.095878 -0.368000
v -0.095878 0.098090 -0.368000
v -0.093090 0.099511 -0.368000
vn -0.0000 -1.0000 -0.0000
vn 0.9695 0.2450 -0.0000
vn 0.8152 0.5792 -0.0000
vn 0.7071 0.7071 -0.0000
vn 0.6743 0.7384 -0.0000
vn 0.4212 0.9070 -0.0000
vn -0.0000 1.0000 -0.0000
vn -0.4212 0.9070 -0.0000
vn -0.6743 0.7384 -0.0000
vn -0.7071 0.7071 -0.0000
vn -0.8152 0.5792 -0.0000
vn -0.9695 0.2450 -0.0000
vn -0.9695 0.2450 0.0001
vn -0.8613 -0.5081 -0.0000
vn -0.7071 -0.7071 -0.0001
vn -0.7071 -0.7071 -0.0000
vn -0.6400 -0.7684 -0.0000
vn 0.6400 -0.7684 -0.0000
vn 0.7071 -0.7071 -0.0000
vn 0.7071 -0.7071 0.0001
vn 0.8613 -0.5081 -0.0000
vn 0.9695 0.2450 -0.0001
vn -0.0000 -0.0000 1.0000
vn -0.0000 -0.0000 -1.0000
vn -0.4212 -0.9070 -0.0000
vn -0.6743 -0.7384 -0.0000
vn -0.7071 -0.7072 -0.0000
vn -0.7071 -0.7072 0.0001
vn -0.8152 -0.5792 -0.0000
vn -0.9695 -0.2450 -0.0000
vn 0.9695 -0.2450 -0.0000
vn 0.8152 -0.5792 -0.0000
vn 0.7071 -0.7072 -0.0001
vn 0.7071 -0.7072 -0.0000
vn 0.6743 -0.7384 -0.0000
vn 0.4212 -0.9070 -0.0000
vn -1.0000 -0.0000 -0.0000
vn 1.0000 -0.0000 -0.0000
vn -0.7866 -0.6174 -0.0000
vn -0.6174 -0.7866 -0.0000
vn 0.6174 -0.7866 -0.0000
vn 0.7866 -0.6174 -0.0000
vn 0.7866 -0.6174 0.0001
vn 0.7866 0.6174 -0.0000
vn 0.6174 0.7866 -0.0000
vn -0.6174 0.7866 -0.0000
vn -0.7866 0.6174 -0.0000
vn -0.7866 0.6174 0.0001
vn -0.0000 0.0001 1.0000
vn -0.0000 -0.0001 -1.0000
vn -0.0000 0.0001 -1.0000
vt -0.000000 -30.000000
vt -40.382542 -27.500000
vt -41.790024 -30.000000
vt -40.382542 -2.500000
vt -41.790024 0.000000
vt -1.407481 -2.500000
vt -0.000000 0.000000
vt -1.407481 -27.500000
vt -0.000000 22.066916
vt -30.000000 22.066916
vt -0.000000 19.308550
vt -30.000000 19.308550
vt -0.000000 16.550186
vt -30.000000 16.550186
vt -0.000000 13.791821
vt -30.000000 13.791821
vt -0.000000 11.033458
vt -30.000000 11.033458
vt -0.000000 8.275093
vt -30.000000 8.275093
vt -0.000000 5.516729
vt -30.000000 5.516729
vt -0.000000 2.758364
vt -30.000000 2.758364
vt -0.000000 -0.000000
vt -30.000000 -0.000000
vt -9.910373 -30.000000
vt -0.000000 -30.000000
vt -9.910373 0.000000
vt -0.000000 0.000000
vt -30.000000 0.000000
vt -0.000000 -2.758364
vt -30.000000 -2.758364
vt -0.000000 -5.516729
vt -30.000000 -5.516729
vt -0.000000 -8.275093
vt -30.000000 -8.275093
vt -0.000000 -11.033458
vt -30.000000 -11.033458
vt -0.000000 -13.791821
vt -30.000000 -13.791821
vt -0.000000 -16.550186
vt -30.000000 -16.550186
vt -0.000000 -19.308550
vt -30.000000 -19.308550
vt -0.000000 -22.066916
vt -30.000000 -22.066916
vt 20.193268 -30.000000
vt 20.193268 0.000000
vt -0.000000 -1.471128
vt -30.000000 -1.471128
vt -0.000000 -1.805221
vt -30.000000 -1.805221
vt -0.000000 -2.139314
vt -30.000000 -2.139314
vt -0.000000 -2.473407
vt -30.000000 -2.473407
vt -0.000000 -2.807500
vt -30.000000 -2.807500
vt 0.000000 -3.141593
vt -30.000000 -3.141593
vt -0.000000 3.141593
vt -30.000000 3.141593
vt 0.000000 2.807500
vt -30.000000 2.807500
vt -0.000000 2.473407
vt -30.000000 2.473407
vt 0.000000 2.139314
vt -30.000000 2.139314
vt 0.000000 1.805221
vt -30.000000 1.805221
vt -0.000000 1.471128
vt -30.000000 1.471128
vt -20.193268 -30.000000
vt -20.193268 0.000000
vt -4.196623 14.400985
vt -2.650000 0.044813
vt -1.492556 14.925558
vt 7.350000 0.044813
vt 18.600496 16.934862
vt 19.700001 15.939826
vt 18.932283 16.912474
vt 19.238382 16.782526
vt 19.484947 16.559389
vt 19.644709 16.267738
vt -6.759177 13.390800
vt -9.093807 11.929069
vt -11.121788 10.065080
vt -12.774734 7.861690
vt -13.996907 5.393198
vt -14.747095 2.742845
vt -15.000000 -0.000000
vt -2.650000 -9.955187
vt -15.000000 -9.910373
vt -14.747095 -12.653217
vt -13.996907 -15.303572
vt -12.774734 -17.772062
vt -11.121788 -19.975452
vt -9.093807 -21.839441
vt -6.759177 -23.301172
vt -4.196623 -24.311357
vt -1.492556 -24.835932
vt 7.350000 -9.955187
vt 18.600496 -26.845236
vt 19.700001 -25.850199
vt 18.932283 -26.822847
vt 19.238382 -26.692900
vt 19.484947 -26.469763
vt 19.644709 -26.178112
vt 14.747095 2.742845
vt 13.996907 5.393198
vt 15.000000 -0.000000
vt 12.774734 7.861690
vt 11.121788 10.065080
vt 9.093807 11.929069
vt 6.759177 13.390800
vt 4.196623 14.400985
vt 1.492556 14.925558
vt 15.000000 -9.910373
vt 1.492556 -24.835932
vt 4.196623 -24.311357
vt -18.600496 16.934862
vt -19.700001 15.939826
vt -19.700001 -25.850199
vt -18.600496 -26.845236
vt -18.932283 -26.822847
vt -19.238382 -26.692900
vt -19.484947 -26.469763
vt -19.644709 -26.178112
vt -18.932283 16.912474
vt -19.238382 16.782526
vt -19.484947 16.559389
vt -19.644709 16.267738
vt 6.759177 -23.301172
vt 9.093807 -21.839441
vt 11.121788 -19.975452
vt 12.774734 -17.772062
vt 13.996907 -15.303572
vt 14.747095 -12.653217
vt 2.500000 -0.000000
vt 27.500000 -0.000000
vt 2.500000 2.298637
vt 27.500000 2.298637
vt 2.500000 4.597274
vt 27.500000 4.597274
vt 2.500000 6.895911
vt 27.500000 6.895911
vt 2.500000 9.194548
vt 27.500000 9.194548
vt 2.500000 11.493185
vt 27.500000 11.493185
vt 2.500000 13.791821
vt 27.500000 13.791821
vt 2.500000 16.090460
vt 27.500000 16.090460
vt 2.500000 18.389095
vt 27.500000 18.389095
vt -0.000000 -27.500000
vt 9.910373 -27.500000
vt -0.000000 -2.500000
vt 9.910373 -2.500000
vt 2.500000 -18.389095
vt 27.500000 -18.389095
vt 2.500000 -16.090460
vt 27.500000 -16.090460
vt 2.500000 -13.791821
vt 27.500000 -13.791821
vt 2.500000 -11.493185
vt 27.500000 -11.493185
vt 2.500000 -9.194548
vt 27.500000 -9.194548
vt 2.500000 -6.895911
vt 27.500000 -6.895911
vt 2.500000 -4.597274
vt 27.500000 -4.597274
vt 2.500000 -2.298637
vt 27.500000 -2.298637
vt 2.500000 0.000000
vt 27.500000 0.000000
vt -21.048256 -27.500000
vt 0.000000 -27.500000
vt -21.048256 -2.500000
vt 0.000000 -2.500000
vt -0.000000 -27.500000
vt 21.048256 -27.500000
vt -0.000000 -2.500000
vt 21.048256 -2.500000
vt 12.289246 2.285704
vt 11.664089 4.494332
vt 12.500000 -0.000000
vt 10.645612 6.551408
vt 9.268157 8.387567
vt 7.578173 9.940890
vt 5.632648 11.158999
vt 3.497186 12.000820
vt 1.243796 12.437964
vt 12.500000 -9.910373
vt 1.243796 -22.348337
vt 3.497186 -21.911194
vt -19.700001 14.532345
vt -19.700001 -24.442719
vt 5.632648 -21.069372
vt 7.578173 -19.851263
vt 9.268157 -18.297939
vt 10.645612 -16.461781
vt 11.664089 -14.404705
vt 12.289246 -12.196077
vt -3.497186 12.000820
vt -12.500000 -0.000000
vt -1.243796 12.437964
vt -12.500000 -9.910373
vt -1.243796 -22.348337
vt -3.497186 -21.911194
vt -5.632648 -21.069372
vt -7.578173 -19.851263
vt -9.268157 -18.297939
vt -10.645612 -16.461781
vt -11.664089 -14.404705
vt -12.289246 -12.196077
vt -5.632648 11.158999
vt -7.578173 9.940890
vt -9.268157 8.387567
vt -10.645612 6.551408
vt -11.664089 4.494332
vt -12.289246 2.285704
vt 19.700001 -24.442719
vt 19.700001 14.532345
vt -10.000000 -1.800000
vt -0.000000 -1.800000
vt -10.000000 0.000000
vt -5.000000 -1.800000
vt 5.000000 -1.800000
vt -5.000000 0.000000
vt 5.000000 0.000000
vt -0.000000 -1.570796
vt -1.900000 -1.570796
vt -0.000000 -1.884956
vt -1.900000 -1.884956
vt -0.000000 -2.199115
vt -1.900000 -2.199115
vt -0.000000 -2.513274
vt -1.900000 -2.513274
vt -0.000000 -2.827433
vt -1.900000 -2.827433
vt -1.900000 -3.141593
vt -18.000000 -1.900000
vt -0.000000 -1.900000
vt -18.000000 0.000000
vt -1.900000 3.141593
vt -0.000000 2.827433
vt -1.900000 2.827433
vt -0.000000 2.513274
vt -1.900000 2.513274
vt -0.000000 2.199115
vt -1.900000 2.199115
vt 0.000000 1.884956
vt -1.900000 1.884956
vt -0.000000 1.570796
vt -1.900000 1.570796
vt -0.000000 1.256637
vt -1.900000 1.256637
vt -0.000000 0.942478
vt -1.900000 0.942478
vt -0.000000 0.628319
vt -1.900000 0.628319
vt -0.000000 0.314159
vt -1.900000 0.314159
vt -0.000000 -0.000000
vt -1.900000 -0.000000
vt -1.900000 0.000000
vt -0.000000 -0.314159
vt -1.900000 -0.314159
vt -0.000000 -0.628319
vt -1.900000 -0.628319
vt -0.000000 -0.942478
vt -1.900000 -0.942478
vt -0.000000 -1.256637
vt -1.900000 -1.256637
vt 0.309017 -0.951057
vt 1.000000 0.000000
vt -0.000000 -1.000000
vt -19.000000 18.000000
vt -19.000000 0.000000
vt 0.587785 -0.809017
vt 0.809017 -0.587785
vt 0.951057 -0.309017
vt -18.000000 19.000000
vt 1.000000 18.000000
vt -0.000000 19.000000
vt 0.951057 18.309017
vt 0.809017 18.587786
vt 0.587785 18.809017
vt 0.309017 18.951057
vt -18.309017 18.951057
vt -18.587786 18.809017
vt -18.809017 18.587786
vt -18.951057 18.309017
vt -18.951057 -0.309017
vt -18.809017 -0.587785
vt -18.587786 -0.809017
vt -18.309017 -0.951057
vt -18.000000 -1.000000
vt -0.951057 -0.309017
vt -0.809017 -0.587785
vt -1.000000 0.000000
vt -0.587785 -0.809017
vt -0.309017 -0.951057
vt 0.000000 -1.000000
vt 4.000000 4.000000
vt 4.000000 14.000000
vt 18.000000 -1.000000
vt 14.000000 4.000000
vt 19.000000 0.000000
vt 14.000000 14.000000
vt 19.000000 18.000000
vt 18.000000 19.000000
vt 18.951057 18.309017
vt 18.809017 18.587786
vt 18.309017 -0.951057
vt 18.587786 -0.809017
vt 18.809017 -0.587785
vt 18.951057 -0.309017
vt 18.587786 18.809017
vt 18.309017 18.951057
vt 0.000000 19.000000
vt -1.000000 18.000000
vt -0.309017 18.951057
vt -0.587785 18.809017
vt -0.809017 18.587786
vt -0.951057 18.309017
s 1
usemtl Material_#47.002
f 2/1/1 6/2/1 1/3/1
f 1/3/1 6/2/1 7/4/1
f 1/3/1 7/4/1 4/5/1
f 4/5/1 7/4/1 8/6/1
f 4/5/1 8/6/1 3/7/1
f 3/7/1 8/6/1 2/1/1
f 2/1/1 8/6/1 5/8/1
f 2/1/1 5/8/1 6/2/1
f 26/9/2 9/10/2 25/11/3
f 25/11/3 9/10/2 10/12/3
f 25/11/3 10/12/3 24/13/4
f 24/13/4 10/12/3 11/14/4
f 24/13/4 11/14/4 23/15/4
f 23/15/4 11/14/4 12/16/4
f 23/15/4 12/16/4 22/17/4
f 22/17/4 12/16/4 13/18/4
f 22/17/4 13/18/4 21/19/4
f 21/19/4 13/18/4 14/20/4
f 21/19/4 14/20/4 20/21/5
f 20/21/5 14/20/4 15/22/5
f 20/21/5 15/22/5 19/23/6
f 19/23/6 15/22/5 16/24/6
f 19/23/6 16/24/6 18/25/7
f 18/25/7 16/24/6 17/26/7
f 17/27/7 27/28/7 18/29/7
f 18/29/7 27/28/7 28/30/7
f 28/30/7 27/31/7 44/32/8
f 44/32/8 27/31/7 29/33/8
f 44/32/8 29/33/8 43/34/9
f 43/34/9 29/33/8 30/35/9
f 43/34/9 30/35/9 42/36/10
f 42/36/10 30/35/9 31/37/10
f 42/36/10 31/37/10 41/38/10
f 41/38/10 31/37/10 32/39/10
f 41/38/10 32/39/10 40/40/10
f 40/40/10 32/39/10 33/41/10
f 40/40/10 33/41/10 39/42/10
f 39/42/10 33/41/10 34/43/10
f 39/42/10 34/43/10 38/44/11
f 38/44/11 34/43/10 35/45/11
f 38/44/11 35/45/11 37/46/12
f 37/46/12 35/45/11 36/47/12
f 36/1/12 45/48/13 37/7/12
f 37/7/12 45/48/13 46/49/12
f 46/50/12 45/51/13 54/52/14
f 54/52/14 45/51/13 47/53/14
f 54/52/14 47/53/14 53/54/15
f 53/54/15 47/53/14 48/55/16
f 53/54/15 48/55/16 52/56/16
f 52/56/16 48/55/16 49/57/16
f 52/56/16 49/57/16 51/58/17
f 51/58/17 49/57/16 50/59/17
f 51/58/17 50/59/17 4/60/1
f 4/60/1 50/59/17 1/61/1
f 3/62/1 2/63/1 64/64/18
f 64/64/18 2/63/1 55/65/18
f 64/64/18 55/65/18 63/66/19
f 63/66/19 55/65/18 56/67/19
f 63/66/19 56/67/19 62/68/19
f 62/68/19 56/67/19 57/69/20
f 62/68/19 57/69/20 61/70/21
f 61/70/21 57/69/20 58/71/21
f 61/70/21 58/71/21 60/72/22
f 60/72/22 58/71/21 59/73/2
f 59/74/2 9/1/2 60/75/22
f 60/75/22 9/1/2 26/7/2
f 25/76/23 66/77/23 26/78/23
f 26/78/23 66/77/23 67/79/23
f 26/78/23 67/79/23 60/80/23
f 60/80/23 67/79/23 3/81/23
f 60/80/23 3/81/23 61/82/23
f 61/82/23 3/81/23 62/83/23
f 62/83/23 3/81/23 63/84/23
f 63/84/23 3/81/23 64/85/23
f 25/76/23 24/86/23 66/77/23
f 66/77/23 24/86/23 23/87/23
f 66/77/23 23/87/23 22/88/23
f 22/88/23 21/89/23 66/77/23
f 66/77/23 21/89/23 20/90/23
f 66/77/23 20/90/23 19/91/23
f 19/91/23 18/92/23 66/77/23
f 66/77/23 18/92/23 65/93/23
f 65/93/23 18/92/23 28/94/23
f 65/93/23 28/94/23 44/95/23
f 44/95/23 43/96/23 65/93/23
f 65/93/23 43/96/23 42/97/23
f 65/93/23 42/97/23 41/98/23
f 41/98/23 40/99/23 65/93/23
f 65/93/23 40/99/23 39/100/23
f 65/93/23 39/100/23 38/101/23
f 38/101/23 37/102/23 65/93/23
f 65/93/23 37/102/23 68/103/23
f 68/103/23 37/102/23 46/104/23
f 68/103/23 46/104/23 4/105/23
f 4/105/23 46/104/23 54/106/23
f 4/105/23 54/106/23 53/107/23
f 53/107/23 52/108/23 4/105/23
f 4/105/23 52/108/23 51/109/23
f 68/103/23 4/105/23 67/79/23
f 67/79/23 4/105/23 3/81/23
f 16/110/24 15/111/24 17/112/24
f 17/112/24 15/111/24 14/113/24
f 17/112/24 14/113/24 13/114/24
f 13/114/24 12/115/24 17/112/24
f 17/112/24 12/115/24 11/116/24
f 17/112/24 11/116/24 10/117/24
f 10/117/24 9/118/24 17/112/24
f 17/112/24 9/118/24 27/119/24
f 27/119/24 9/118/24 36/120/24
f 27/119/24 36/120/24 35/121/24
f 59/122/24 2/123/24 9/118/24
f 9/118/24 2/123/24 1/124/24
f 9/118/24 1/124/24 36/120/24
f 36/120/24 1/124/24 45/125/24
f 45/125/24 1/124/24 47/126/24
f 47/126/24 1/124/24 48/127/24
f 48/127/24 1/124/24 49/128/24
f 49/128/24 1/124/24 50/129/24
f 59/122/24 58/130/24 2/123/24
f 2/123/24 58/130/24 57/131/24
f 2/123/24 57/131/24 56/132/24
f 56/132/24 55/133/24 2/123/24
f 35/121/24 34/134/24 27/119/24
f 27/119/24 34/134/24 33/135/24
f 27/119/24 33/135/24 32/136/24
f 32/136/24 31/137/24 27/119/24
f 27/119/24 31/137/24 30/138/24
f 27/119/24 30/138/24 29/139/24
f 86/140/1 69/141/1 85/142/25
f 85/142/25 69/141/1 70/143/25
f 85/142/25 70/143/25 84/144/26
f 84/144/26 70/143/25 71/145/26
f 84/144/26 71/145/26 83/146/27
f 83/146/27 71/145/26 72/147/28
f 83/146/27 72/147/28 82/148/16
f 82/148/16 72/147/28 73/149/16
f 82/148/16 73/149/16 81/150/15
f 81/150/15 73/149/16 74/151/16
f 81/150/15 74/151/16 80/152/16
f 80/152/16 74/151/16 75/153/16
f 80/152/16 75/153/16 79/154/29
f 79/154/29 75/153/16 76/155/29
f 79/154/29 76/155/29 78/156/30
f 78/156/30 76/155/29 77/157/30
f 87/158/1 69/159/1 88/160/1
f 88/160/1 69/159/1 86/161/1
f 104/162/31 89/163/31 103/164/32
f 103/164/32 89/163/31 90/165/32
f 103/164/32 90/165/32 102/166/19
f 102/166/19 90/165/32 91/167/19
f 102/166/19 91/167/19 101/168/19
f 101/168/19 91/167/19 92/169/20
f 101/168/19 92/169/20 100/170/19
f 100/170/19 92/169/20 93/171/19
f 100/170/19 93/171/19 99/172/33
f 99/172/33 93/171/19 94/173/34
f 99/172/33 94/173/34 98/174/35
f 98/174/35 94/173/34 95/175/35
f 98/174/35 95/175/35 97/176/36
f 97/176/36 95/175/35 96/177/36
f 97/176/36 96/177/36 88/178/1
f 88/178/1 96/177/36 87/179/1
f 6/180/31 89/181/31 7/182/31
f 7/182/31 89/181/31 104/183/31
f 77/184/30 5/185/30 78/186/30
f 78/186/30 5/185/30 8/187/30
f 85/188/24 84/189/24 86/190/24
f 86/190/24 84/189/24 83/191/24
f 86/190/24 83/191/24 82/192/24
f 82/192/24 81/193/24 86/190/24
f 86/190/24 81/193/24 80/194/24
f 86/190/24 80/194/24 79/195/24
f 79/195/24 78/196/24 86/190/24
f 86/190/24 78/196/24 88/197/24
f 88/197/24 78/196/24 104/198/24
f 88/197/24 104/198/24 103/199/24
f 8/200/24 7/201/24 78/196/24
f 78/196/24 7/201/24 104/198/24
f 103/199/24 102/202/24 88/197/24
f 88/197/24 102/202/24 101/203/24
f 88/197/24 101/203/24 100/204/24
f 100/204/24 99/205/24 88/197/24
f 88/197/24 99/205/24 98/206/24
f 88/197/24 98/206/24 97/207/24
f 76/208/23 69/209/23 77/210/23
f 77/210/23 69/209/23 87/211/23
f 77/210/23 87/211/23 89/212/23
f 89/212/23 87/211/23 90/213/23
f 90/213/23 87/211/23 91/214/23
f 91/214/23 87/211/23 92/215/23
f 92/215/23 87/211/23 93/216/23
f 93/216/23 87/211/23 94/217/23
f 94/217/23 87/211/23 95/218/23
f 95/218/23 87/211/23 96/219/23
f 76/208/23 75/220/23 69/209/23
f 69/209/23 75/220/23 74/221/23
f 69/209/23 74/221/23 73/222/23
f 73/222/23 72/223/23 69/209/23
f 69/209/23 72/223/23 71/224/23
f 69/209/23 71/224/23 70/225/23
f 89/212/23 6/226/23 77/210/23
f 77/210/23 6/226/23 5/227/23
f 66/228/7 65/229/7 106/230/7
f 106/230/7 65/229/7 105/7/7
f 65/228/37 68/229/37 105/230/37
f 105/230/37 68/229/37 107/7/37
f 68/228/1 67/229/1 107/230/1
f 107/230/1 67/229/1 108/7/1
f 67/231/38 66/232/38 108/233/38
f 108/233/38 66/232/38 106/234/38
f 120/235/37 109/236/37 119/237/39
f 119/237/39 109/236/37 110/238/39
f 119/237/39 110/238/39 118/239/16
f 118/239/16 110/238/39 111/240/16
f 118/239/16 111/240/16 117/241/16
f 117/241/16 111/240/16 112/242/16
f 117/241/16 112/242/16 116/243/40
f 116/243/40 112/242/16 113/244/40
f 116/243/40 113/244/40 115/60/1
f 115/60/1 113/244/40 114/245/1
f 114/246/1 121/247/1 115/248/1
f 115/248/1 121/247/1 122/7/1
f 122/62/1 121/249/1 132/250/41
f 132/250/41 121/249/1 123/251/41
f 132/250/41 123/251/41 131/252/19
f 131/252/19 123/251/41 124/253/19
f 131/252/19 124/253/19 130/254/19
f 130/254/19 124/253/19 125/255/19
f 130/254/19 125/255/19 129/256/42
f 129/256/42 125/255/19 126/257/43
f 129/256/42 126/257/43 128/258/38
f 128/258/38 126/257/43 127/259/38
f 127/246/38 133/247/38 128/248/38
f 128/248/38 133/247/38 134/7/38
f 134/258/38 133/259/38 144/260/44
f 144/260/44 133/259/38 135/261/44
f 144/260/44 135/261/44 143/262/4
f 143/262/4 135/261/44 136/263/4
f 143/262/4 136/263/4 142/264/4
f 142/264/4 136/263/4 137/265/4
f 142/264/4 137/265/4 141/266/45
f 141/266/45 137/265/4 138/267/45
f 141/266/45 138/267/45 140/268/7
f 140/268/7 138/267/45 139/269/7
f 139/246/7 145/247/7 140/248/7
f 140/248/7 145/247/7 146/7/7
f 146/7/7 145/270/7 156/271/46
f 156/271/46 145/270/7 147/272/46
f 156/271/46 147/272/46 155/273/10
f 155/273/10 147/272/46 148/274/10
f 155/273/10 148/274/10 154/275/10
f 154/275/10 148/274/10 149/276/10
f 154/275/10 149/276/10 153/277/47
f 153/277/47 149/276/10 150/278/48
f 153/277/47 150/278/48 152/235/37
f 152/235/37 150/278/48 151/236/37
f 151/246/37 109/247/37 152/248/37
f 152/248/37 109/247/37 120/7/37
f 119/279/23 115/280/23 120/281/23
f 120/281/23 115/280/23 140/282/23
f 120/281/23 140/282/23 146/283/23
f 119/279/23 118/284/23 115/280/23
f 115/280/23 118/284/23 117/285/23
f 115/280/23 117/285/23 116/286/49
f 140/282/23 115/280/23 134/287/23
f 134/287/23 115/280/23 122/288/23
f 134/287/23 122/288/23 128/289/23
f 128/289/23 122/288/23 132/290/23
f 128/289/23 132/290/23 131/291/23
f 131/291/23 130/292/23 128/289/23
f 128/289/23 130/292/23 129/293/23
f 144/294/23 143/295/23 134/287/23
f 134/287/23 143/295/23 142/296/23
f 134/287/23 142/296/23 141/297/23
f 141/297/23 140/282/23 134/287/23
f 156/298/23 155/299/23 146/283/23
f 146/283/23 155/299/23 154/300/23
f 146/283/23 154/300/23 153/301/23
f 153/301/23 152/302/23 146/283/23
f 146/283/23 152/302/23 120/281/23
f 113/303/50 112/304/24 114/305/24
f 114/305/24 112/304/24 111/306/24
f 114/305/24 111/306/24 110/307/24
f 110/307/24 109/308/24 114/305/24
f 114/305/24 109/308/24 107/309/24
f 114/305/24 107/309/24 108/310/24
f 109/308/24 151/311/24 107/309/24
f 107/309/24 151/311/24 105/312/24
f 105/312/24 151/311/24 145/313/24
f 105/312/24 145/313/24 106/314/24
f 106/314/24 145/313/24 139/315/24
f 106/314/24 139/315/24 133/316/24
f 133/316/24 139/315/24 138/317/24
f 133/316/24 138/317/24 137/318/24
f 151/311/24 150/319/24 145/313/24
f 145/313/24 150/319/24 149/320/24
f 145/313/24 149/320/24 148/321/24
f 148/321/24 147/322/51 145/313/24
f 137/318/24 136/323/24 133/316/24
f 133/316/24 136/323/24 135/324/24
f 133/316/24 127/325/24 106/314/24
f 106/314/24 127/325/24 108/310/24
f 108/310/24 127/325/24 121/326/24
f 108/310/24 121/326/24 114/305/24
f 126/327/24 125/328/24 127/325/24
f 127/325/24 125/328/24 124/329/24
f 127/325/24 124/329/24 123/330/24
f 123/330/24 121/326/24 127/325/24
