<svg t="1742393943159" class="icon" viewBox="0 0 1024 1024" version="1.1" xmlns="http://www.w3.org/2000/svg" p-id="19926" id="mx_n_1742393943160" width="128" height="128"><path d="M512.012 79.988c129.979 0 248.9 57.93 329.01 151.935l2.572 3.057-0.134-17.808-0.309-36.282-0.46-47.847-0.047-4.646c-0.226-22.09 17.499-40.181 39.59-40.407 22.09-0.226 40.18 17.5 40.406 39.59l0.304 30.724 0.326 35.656 0.265 32.601 0.156 21.967 0.123 20.325 0.084 17.053 0.068 20.142 0.022 13.935v11.536l-0.037 12.11-0.048 8.447-0.082 8.777-0.109 7.478-0.07 3.49-0.087 3.454-0.065 2.085-0.07 1.92-0.079 1.76-0.108 1.986-0.07 1.084-0.05 0.679c-0.26 3.347-0.557 5.746-1.416 9.085a39.496 39.496 0 0 1-2.976 8.025 39.452 39.452 0 0 1-5.934 8.817c-4.81 5.43-11.168 9.856-19.547 12.12-10.462 2.827-21.17 1.237-30.028-3.725-5.607-3.142-9.614-7.01-12.747-11.285-2.725-3.716-4.272-6.94-5.472-10.312l-0.161-0.46c-48.586-140.722-181.515-237.066-332.82-237.066-194.404 0-352 157.596-352 352s157.596 352 352 352c149.781 0 281.556-94.414 331.328-232.83l1.483-4.208c7.211-20.881 29.985-31.963 50.866-24.751 20.881 7.211 31.963 29.985 24.751 50.866-59.649 172.715-222.757 290.923-408.428 290.923-238.587 0-432-193.413-432-432s193.413-432 432-432zM512 320c106.039 0 192 85.961 192 192s-85.961 192-192 192-192-85.961-192-192 85.961-192 192-192z m0 80c-61.856 0-112 50.144-112 112s50.144 112 112 112 112-50.144 112-112-50.144-112-112-112z" p-id="19927"></path></svg>