<svg t="1746543264310" class="icon" viewBox="0 0 1024 1024" version="1.1" xmlns="http://www.w3.org/2000/svg" p-id="2614" width="200" height="200"><path d="M60.8 374.4l326.4 172.8c35.2 19.2 80 28.8 124.8 28.8s89.6-9.6 124.8-28.8l326.4-172.8C1001.6 352 1024 323.2 1024 288s-22.4-64-60.8-86.4L636.8 28.8c-70.4-38.4-179.2-38.4-246.4 0L60.8 201.6C22.4 224 0 252.8 0 288s22.4 64 60.8 86.4z m32-115.2l326.4-172.8c25.6-16 57.6-22.4 92.8-22.4s67.2 6.4 92.8 19.2L931.2 256c19.2 12.8 28.8 22.4 28.8 32s-9.6 19.2-28.8 28.8l-326.4 172.8c-51.2 25.6-137.6 25.6-188.8 0L92.8 316.8C73.6 307.2 64 297.6 64 288s9.6-19.2 28.8-28.8z" p-id="2615"></path><path d="M963.2 425.6c-16-9.6-35.2-3.2-44.8 12.8s-3.2 35.2 12.8 44.8c16 9.6 28.8 19.2 28.8 28.8s-9.6 19.2-28.8 28.8l-326.4 172.8c-51.2 25.6-137.6 25.6-188.8 0L92.8 540.8c-19.2-9.6-28.8-19.2-28.8-28.8s9.6-19.2 28.8-28.8c16-9.6 22.4-28.8 12.8-44.8s-28.8-22.4-44.8-12.8C22.4 448 0 476.8 0 512s22.4 64 60.8 86.4l326.4 172.8c35.2 19.2 80 28.8 124.8 28.8s89.6-9.6 124.8-28.8l326.4-172.8C1001.6 576 1024 547.2 1024 512s-22.4-64-60.8-86.4z" p-id="2616"></path><path d="M963.2 649.6c-16-9.6-35.2-3.2-44.8 12.8s-3.2 35.2 12.8 44.8c16 9.6 28.8 19.2 28.8 28.8s-9.6 19.2-28.8 28.8l-326.4 172.8c-51.2 25.6-137.6 25.6-188.8 0L92.8 764.8c-19.2-9.6-28.8-19.2-28.8-28.8s9.6-19.2 28.8-28.8c16-9.6 22.4-28.8 12.8-44.8s-28.8-22.4-44.8-12.8C22.4 672 0 700.8 0 736s22.4 64 60.8 86.4l326.4 172.8c35.2 19.2 80 28.8 124.8 28.8s89.6-9.6 124.8-28.8l326.4-172.8C1001.6 800 1024 771.2 1024 736s-22.4-64-60.8-86.4z" p-id="2617"></path></svg>