<svg t="1742385876103" class="icon" viewBox="0 0 1024 1024" version="1.1" xmlns="http://www.w3.org/2000/svg" p-id="4125" width="128" height="128"><path d="M306.602667 420.949333h-219.733334A46.250667 46.250667 0 0 1 39.722667 373.845333v-219.733333c0-26.666667 20.394667-47.104 47.061333-47.104 26.709333 0 47.104 20.437333 47.104 47.104v172.672h172.672c26.666667 0 47.104 20.394667 47.104 47.061333 0 26.709333-20.437333 47.104-47.104 47.104zM932.906667 916.992a46.250667 46.250667 0 0 1-47.104-47.104v-172.672h-172.672a46.250667 46.250667 0 0 1-47.061334-47.061333c0-26.709333 20.394667-47.104 47.061334-47.104h219.733333c26.709333 0 47.104 20.394667 47.104 47.104v219.733333c0 26.666667-20.394667 47.104-47.061333 47.104z" fill="#172B4D" p-id="4126"></path><path d="M932.906667 559.104A46.250667 46.250667 0 0 1 885.76 512a375.125333 375.125333 0 0 0-375.125333-375.168A375.552 375.552 0 0 0 155.904 389.546667c-7.850667 25.173333-36.096 37.674667-59.648 29.866666-25.088-7.893333-37.674667-36.138667-29.824-59.690666C132.352 169.813333 311.338667 42.666667 510.72 42.666667c258.986667 0 469.333333 210.346667 469.333333 469.333333 0 26.666667-20.437333 47.104-47.104 47.104zM510.634667 981.333333c-258.986667 0-469.333333-210.346667-469.333334-469.333333 0-26.666667 20.437333-47.104 47.104-47.104 26.666667 0 47.104 20.437333 47.104 47.104a375.168 375.168 0 0 0 375.125334 375.168c160.128 0 302.933333-102.058667 354.773333-252.714667 7.850667-25.130667 36.096-37.674667 59.648-29.866666 25.088 7.893333 37.674667 36.138667 29.824 59.690666C888.96 854.186667 709.973333 981.333333 510.634667 981.333333z" fill="#172B4D" p-id="4127"></path></svg>